<svg width="54" height="54" viewBox="0 0 54 54" fill="none" xmlns="http://www.w3.org/2000/svg">
<path d="M17.3571 54H5.78571C2.59152 54 0 51.4085 0 48.2143V5.78571C0 2.59152 2.59152 0 5.78571 0H17.3571C20.5513 0 23.1429 2.59152 23.1429 5.78571V48.2143C23.1429 51.4085 20.5513 54 17.3571 54ZM54 48.2143V5.78571C54 2.59152 51.4085 0 48.2143 0H36.6429C33.4487 0 30.8571 2.59152 30.8571 5.78571V48.2143C30.8571 51.4085 33.4487 54 36.6429 54H48.2143C51.4085 54 54 51.4085 54 48.2143Z" fill="#BF4501"/>
</svg>
