<svg width="50" height="43" viewBox="0 0 50 43" fill="none" xmlns="http://www.w3.org/2000/svg">
<path d="M14.5833 17.6607V25.3393C14.5833 26.6115 13.534 27.6429 12.2396 27.6429H2.34375C1.04932 27.6429 0 26.6115 0 25.3393V17.6607C0 16.3885 1.04932 15.3571 2.34375 15.3571H12.2396C13.534 15.3571 14.5833 16.3885 14.5833 17.6607ZM0 33.0179V40.6964C0 41.9687 1.04932 43 2.34375 43H12.2396C13.534 43 14.5833 41.9687 14.5833 40.6964V33.0179C14.5833 31.7456 13.534 30.7143 12.2396 30.7143H2.34375C1.04932 30.7143 0 31.7456 0 33.0179ZM12.2396 0H2.34375C1.04932 0 0 1.03133 0 2.30357V9.98214C0 11.2544 1.04932 12.2857 2.34375 12.2857H12.2396C13.534 12.2857 14.5833 11.2544 14.5833 9.98214V2.30357C14.5833 1.03133 13.534 0 12.2396 0ZM20.0521 43H47.6562C48.9507 43 50 41.9687 50 40.6964V33.0179C50 31.7456 48.9507 30.7143 47.6562 30.7143H20.0521C18.7576 30.7143 17.7083 31.7456 17.7083 33.0179V40.6964C17.7083 41.9687 18.7576 43 20.0521 43ZM17.7083 2.30357V9.98214C17.7083 11.2544 18.7576 12.2857 20.0521 12.2857H47.6562C48.9507 12.2857 50 11.2544 50 9.98214V2.30357C50 1.03133 48.9507 0 47.6562 0H20.0521C18.7576 0 17.7083 1.03133 17.7083 2.30357ZM20.0521 27.6429H47.6562C48.9507 27.6429 50 26.6115 50 25.3393V17.6607C50 16.3885 48.9507 15.3571 47.6562 15.3571H20.0521C18.7576 15.3571 17.7083 16.3885 17.7083 17.6607V25.3393C17.7083 26.6115 18.7576 27.6429 20.0521 27.6429Z" fill="#BF4501"/>
</svg>
