<svg width="63" height="55" viewBox="0 0 63 55" fill="none" xmlns="http://www.w3.org/2000/svg">
<path d="M39.375 37.3214C39.375 38.4067 38.494 39.2857 37.4062 39.2857H25.5938C24.506 39.2857 23.625 38.4067 23.625 37.3214V31.4286H0V49.1071C0 52.25 2.75625 55 5.90625 55H57.0938C60.2438 55 63 52.25 63 49.1071V31.4286H39.375V37.3214ZM57.0938 11.7857H47.25V5.89286C47.25 2.75 44.4938 0 41.3438 0H21.6562C18.5062 0 15.75 2.75 15.75 5.89286V11.7857H5.90625C2.75625 11.7857 0 14.5357 0 17.6786V27.5H63V17.6786C63 14.5357 60.2438 11.7857 57.0938 11.7857ZM39.375 11.7857H23.625V7.85714H39.375V11.7857Z" fill="#BF4501"/>
</svg>
